<svg width="445" height="423" viewBox="0 0 445 423" fill="none" xmlns="http://www.w3.org/2000/svg">
<path d="M158.195 348.391L168.235 356.311L97.8536 395.016L87.4821 386.834L108.827 309.443L118.783 317.298L114.043 333.885L143.167 356.861L158.195 348.391ZM103.607 379.363L133.385 362.606L110.816 344.801L101.45 377.661C100.932 379.227 100.441 380.589 99.9753 381.748C100.994 381.025 102.204 380.23 103.607 379.363Z" fill="#FAFAFA"/>
<path d="M99.4466 285.936L103.569 297.257L34.0559 322.571L29.9332 311.251L58.9303 300.691L53.9397 286.987L17.8908 278.182L13.2257 265.372L55.4786 276.079L82.0882 238.27L86.7532 251.08L64.2944 282.991L69.3573 296.894L99.4466 285.936Z" fill="#FAFAFA"/>
<path d="M9.8123 221.228L19.5533 161.031L30.5076 162.804L26.6079 186.904L88.6828 196.949L86.7582 208.842L24.6833 198.797L20.7667 223.001L9.8123 221.228Z" fill="#FAFAFA"/>
<path d="M106.072 124.266C112.174 136.157 112.088 146.133 105.814 154.196C103.78 156.809 101.172 159.243 97.9889 161.498L89.5649 154.942C91.9753 153.336 94.0892 151.366 95.9066 149.03C99.5846 144.304 100.099 139.169 97.4493 133.625L96.1246 130.854L35.5716 121.763L43.8146 111.171L91.1316 119.201L69.3876 78.309L77.4359 67.9668L106.072 124.266Z" fill="#FAFAFA"/>
<path d="M150.959 105.093L139.012 109.654L141.853 29.383L154.195 24.6715L209.706 82.6667L197.858 87.1897L186.045 74.6177L151.389 87.8475L150.959 105.093ZM152.345 42.3463L151.47 76.5041L178.326 66.2519L154.912 41.3663C153.832 40.1192 152.915 38.999 152.158 38.0056C152.256 39.2503 152.318 40.6971 152.345 42.3463Z" fill="#FAFAFA"/>
<path d="M251.803 14.2197L298.573 24.4473L282.769 96.7187L270.999 94.1448L284.433 32.7141L260.48 27.4762C258.953 32.4793 257.701 36.3886 256.725 39.2042C255.818 42.0349 254.592 45.6614 253.048 50.0837C251.504 54.5061 250.128 57.9917 248.922 60.5406C247.799 63.0357 246.414 65.9062 244.767 69.152C243.12 72.3979 241.493 74.8909 239.886 76.6311C238.279 78.3712 236.508 80.0394 234.573 81.6355C232.652 83.1628 230.596 84.1555 228.404 84.6138C226.296 85.0183 224.038 84.9572 221.629 84.4304C219.426 83.9487 217.142 83.0165 214.776 81.6336L217.146 70.7929C218.418 71.5757 220.017 72.1779 221.944 72.5993C223.817 72.9369 225.669 72.5485 227.5 71.4342C229.33 70.3199 231.021 68.526 232.571 66.0523C234.191 63.5937 235.733 60.8297 237.197 57.7603C238.677 54.622 240.132 50.9374 241.562 46.7065C243.076 42.4218 244.441 38.321 245.658 34.4041C246.959 30.4335 248.324 26.0079 249.752 21.1274C250.635 18.0752 251.319 15.7727 251.803 14.2197Z" fill="#FAFAFA"/>
<path d="M319.753 126.158L300.846 107.703L352.519 54.7623L361.141 63.1778L343.424 81.329L353.71 91.3685C368.687 106.184 370.566 119.34 359.345 130.835C348.026 142.432 334.829 140.873 319.753 126.158ZM335.747 89.1945L317.145 108.253L327.884 118.736C332.019 122.771 335.935 125.265 339.633 126.216C343.432 127.167 347.078 125.852 350.572 122.272C354.066 118.693 355.267 115.041 354.176 111.317C353.184 107.592 350.621 103.712 346.487 99.6769L335.747 89.1945Z" fill="#FAFAFA"/>
<path d="M433.965 194.284L436.772 206L364.828 223.235L362.021 211.518L392.649 204.181L383.564 166.257L352.936 173.593L350.13 161.877L422.074 144.643L424.88 156.359L394.355 163.671L403.44 201.596L433.965 194.284Z" fill="#FAFAFA"/>
<path d="M386.11 250.26C390.898 250.428 395.615 251.439 400.261 253.295C404.907 255.15 409.023 257.667 412.609 260.844C416.169 264.087 419.043 267.814 421.23 272.026C423.483 276.264 424.65 281.131 424.731 286.626C424.878 292.147 423.788 297.819 421.462 303.642C419.136 309.466 416.032 314.295 412.148 318.13C408.303 322.057 404.105 324.781 399.553 326.301C395.04 327.912 390.389 328.634 385.6 328.467C380.785 328.365 376.055 327.386 371.41 325.53C366.764 323.675 362.661 321.126 359.101 317.883C355.514 314.705 352.608 310.965 350.382 306.662C348.194 302.45 347.028 297.583 346.881 292.062C346.773 286.633 347.883 281.006 350.208 275.183C352.534 269.36 355.62 264.484 359.464 260.557C363.374 256.657 367.572 253.933 372.059 252.387C376.611 250.867 381.295 250.158 386.11 250.26ZM360.682 300.533C363.799 306.786 368.89 311.323 375.957 314.145C383.023 316.968 389.84 317.187 396.407 314.802C402.947 312.483 407.799 307.365 410.961 299.448C414.097 291.596 414.106 284.544 410.989 278.292C407.872 272.04 402.78 267.502 395.714 264.68C388.647 261.857 381.831 261.639 375.264 264.023C368.697 266.408 363.846 271.526 360.71 279.377C357.548 287.294 357.538 294.346 360.682 300.533Z" fill="#FAFAFA"/>
<path d="M367.361 381.849L326.152 411.794L319.691 402.903L351.153 380.04L339.287 363.71L310.389 384.709L303.928 375.818L332.825 354.819L320.586 337.976L288.611 361.212L282.15 352.321L323.871 322.002L367.361 381.849Z" fill="#FAFAFA"/>
</svg>
