<svg width="65" height="65" viewBox="0 0 65 65" fill="none" xmlns="http://www.w3.org/2000/svg">
<path d="M32.5 65C50.4493 65 65 50.4493 65 32.5C65 14.5507 50.4493 0 32.5 0C14.5507 0 0 14.5507 0 32.5C0 50.4493 14.5507 65 32.5 65Z" fill="#427FE9"/>
<path d="M37.3429 33.2063C36.9906 33.2063 36.6528 33.0664 36.4038 32.8173C36.1547 32.5682 36.0148 32.2304 36.0148 31.8782C35.9859 31.0754 35.6467 30.3152 35.0686 29.7575C34.4905 29.1998 33.7185 28.8882 32.9153 28.8882C32.112 28.8882 31.34 29.1998 30.7619 29.7575C30.1838 30.3152 29.8446 31.0754 29.8157 31.8782C29.8157 32.2304 29.6758 32.5682 29.4267 32.8173C29.1777 33.0664 28.8399 33.2063 28.4876 33.2063C28.1354 33.2063 27.7976 33.0664 27.5485 32.8173C27.2995 32.5682 27.1595 32.2304 27.1595 31.8782C27.1992 30.378 27.8229 28.9525 28.898 27.9055C29.9731 26.8584 31.4145 26.2725 32.9153 26.2725C34.416 26.2725 35.8574 26.8584 36.9325 27.9055C38.0076 28.9525 38.6314 30.378 38.671 31.8782C38.671 32.2304 38.531 32.5682 38.282 32.8173C38.0329 33.0664 37.6951 33.2063 37.3429 33.2063Z" fill="white"/>
<path d="M24.0741 33.2063C23.7218 33.2063 23.384 33.0664 23.135 32.8174C22.8859 32.5683 22.746 32.2305 22.746 31.8783C22.7486 29.5231 23.5674 27.2416 25.0631 25.4223C26.5588 23.603 28.6389 22.3584 30.9491 21.9005C33.2593 21.4425 35.6569 21.7994 37.7335 22.9105C39.8101 24.0217 41.4374 25.8182 42.3383 27.9943C42.4729 28.3199 42.4726 28.6857 42.3375 29.0111C42.2025 29.3366 41.9437 29.595 41.618 29.7296C41.2924 29.8643 40.9266 29.864 40.6012 29.7289C40.2758 29.5939 40.0173 29.3351 39.8827 29.0094C39.2197 27.3978 38.0178 26.0664 36.4822 25.2425C34.9467 24.4185 33.1727 24.1532 31.4633 24.4919C29.7538 24.8306 28.215 25.7522 27.1095 27.0993C26.0041 28.4465 25.4006 30.1356 25.4021 31.8783C25.4021 32.2305 25.2622 32.5683 25.0132 32.8174C24.7641 33.0664 24.4263 33.2063 24.0741 33.2063Z" fill="white"/>
<path d="M46.1942 33.206C45.8419 33.206 45.5041 33.0661 45.2551 32.817C45.006 32.568 44.8661 32.2302 44.8661 31.8779C44.8618 28.7074 43.5994 25.6683 41.356 23.4279C39.1126 21.1875 36.0717 19.9292 32.9013 19.9292C32.549 19.9292 32.2112 19.7892 31.9622 19.5402C31.7131 19.2911 31.5732 18.9533 31.5732 18.6011C31.5732 18.2488 31.7131 17.911 31.9622 17.662C32.2112 17.4129 32.549 17.273 32.9013 17.273C34.8557 17.2686 36.7908 17.6589 38.5908 18.4205C41.2367 19.5371 43.4944 21.4095 45.0811 23.8034C46.6677 26.1972 47.5127 29.006 47.5102 31.8779C47.5102 32.2281 47.372 32.5641 47.1255 32.8128C46.879 33.0615 46.5443 33.2028 46.1942 33.206ZM19.6364 33.206C19.462 33.206 19.2893 33.1717 19.1282 33.1049C18.9671 33.0382 18.8207 32.9403 18.6973 32.817C18.574 32.6937 18.4762 32.5473 18.4095 32.3862C18.3427 32.225 18.3084 32.0523 18.3084 31.8779C18.3047 28.6585 19.3686 25.5287 21.3337 22.9785C22.9997 20.814 25.237 19.1575 27.7935 18.1958C28.1234 18.0719 28.489 18.084 28.81 18.2296C29.1309 18.3752 29.3808 18.6423 29.5048 18.9722C29.6288 19.3021 29.6166 19.6677 29.471 19.9886C29.3254 20.3096 29.0583 20.5595 28.7284 20.6835C26.6331 21.4666 24.8004 22.8237 23.4401 24.5995C21.8264 26.6817 20.9551 29.2436 20.9645 31.8779C20.9645 32.2302 20.8246 32.568 20.5755 32.817C20.3265 33.0661 19.9887 33.206 19.6364 33.206Z" fill="white"/>
<path d="M50.6197 33.2063C50.2675 33.2063 49.9297 33.0663 49.6806 32.8173C49.4315 32.5682 49.2916 32.2304 49.2916 31.8782C49.297 29.727 48.876 27.5961 48.053 25.6085C47.2301 23.621 46.0214 21.8162 44.4969 20.2985C44.2565 20.0478 44.1239 19.7128 44.1276 19.3655C44.1313 19.0181 44.2709 18.686 44.5165 18.4404C44.7621 18.1948 45.0942 18.0552 45.4416 18.0515C45.7889 18.0478 46.1239 18.1804 46.3746 18.4208C49.9427 21.9905 51.9473 26.831 51.9478 31.8782C51.9478 32.0526 51.9134 32.2253 51.8467 32.3864C51.78 32.5475 51.6821 32.6939 51.5588 32.8173C51.4355 32.9406 51.2891 33.0384 51.1279 33.1052C50.9668 33.1719 50.7941 33.2063 50.6197 33.2063ZM15.4996 29.9964C15.419 29.9953 15.3386 29.9886 15.2589 29.9763C14.9126 29.9129 14.6056 29.7145 14.4055 29.4249C14.2053 29.1352 14.1284 28.7779 14.1916 28.4316C15.0847 23.5862 17.8218 19.2759 21.8273 16.407C25.8328 13.5381 30.7948 12.3341 35.6697 13.0482C37.909 13.3764 40.0719 14.1006 42.0574 15.1868C42.3665 15.356 42.5958 15.6411 42.6947 15.9793C42.7937 16.3175 42.7542 16.6812 42.585 16.9904C42.4158 17.2995 42.1307 17.5287 41.7925 17.6277C41.4543 17.7266 41.0906 17.6872 40.7814 17.518C39.0816 16.5827 37.2281 15.959 35.3086 15.6763C34.5116 15.5588 33.7068 15.5011 32.9012 15.5038C29.0721 15.5032 25.364 16.8456 22.4226 19.2973C19.4813 21.7489 17.4929 25.1545 16.8037 28.9211C16.7474 29.226 16.5863 29.5017 16.3481 29.7003C16.1099 29.8989 15.8098 30.0079 15.4996 30.0084V29.9964Z" fill="white"/>
<path d="M10.7852 33.2061C10.433 33.2061 10.0952 33.0662 9.84614 32.8171C9.59708 32.568 9.45715 32.2302 9.45715 31.878C9.45896 27.0501 10.9482 22.3399 13.7223 18.3885C14.5001 17.2858 15.3699 16.2509 16.3223 15.295C16.573 15.0546 16.908 14.922 17.2553 14.9257C17.6027 14.9294 17.9348 15.069 18.1804 15.3146C18.426 15.5603 18.5656 15.8923 18.5693 16.2397C18.573 16.587 18.4404 16.922 18.2001 17.1728C17.3539 18.0213 16.5821 18.9408 15.893 19.9212C13.4249 23.4208 12.1029 27.5997 12.1093 31.882C12.1083 32.2329 11.9684 32.569 11.7203 32.8171C11.4722 33.0652 11.1361 33.205 10.7852 33.2061ZM54.6763 29.1937C54.3648 29.1951 54.0627 29.087 53.8229 28.8882C53.5831 28.6895 53.4207 28.4127 53.3643 28.1064C52.6071 23.9623 50.6058 20.1472 47.6266 17.1687C45.6969 15.2301 43.4018 13.6935 40.8742 12.6481C38.3465 11.6026 35.6366 11.0689 32.9013 11.078C28.4315 11.078 26.4294 11.2907 23.1232 13.5496C22.8322 13.7486 22.474 13.8238 22.1275 13.7587C21.781 13.6937 21.4745 13.4936 21.2755 13.2025C21.0765 12.9115 21.0013 12.5533 21.0664 12.2068C21.1315 11.8603 21.3315 11.5539 21.6226 11.3549C23.2457 10.1787 25.0851 9.33467 27.0352 8.87122C28.9683 8.5079 30.9355 8.35855 32.9013 8.42585C39.1236 8.42556 45.0913 10.8964 49.4923 15.295C52.8517 18.6551 55.1114 22.9562 55.9723 27.6289C56.0356 27.9752 55.9594 28.3325 55.7601 28.6227C55.5609 28.9129 55.2549 29.1124 54.909 29.1777C54.8319 29.1883 54.7541 29.1937 54.6763 29.1937Z" fill="white"/>
<path d="M9.95459 37.8282C9.79684 37.8295 9.64027 37.8009 9.49317 37.7439C9.32962 37.6836 9.17959 37.5916 9.05169 37.4732C8.92378 37.3548 8.82052 37.2122 8.74783 37.0538C8.67513 36.8954 8.63444 36.7241 8.62808 36.5499C8.62172 36.3757 8.64982 36.202 8.71077 36.0387C9.20434 34.707 9.45704 33.2981 9.45706 31.8779C9.45706 31.5257 9.59698 31.1879 9.84605 30.9388C10.0951 30.6897 10.4329 30.5498 10.7851 30.5498C11.1374 30.5498 11.4752 30.6897 11.7242 30.9388C11.9733 31.1879 12.1132 31.5257 12.1132 31.8779C12.114 33.6134 11.8041 35.3351 11.1984 36.9615C11.1048 37.216 10.9353 37.4355 10.7128 37.5905C10.4904 37.7455 10.2257 37.8285 9.95459 37.8282Z" fill="white"/>
<path d="M11.8806 43.542C11.6363 43.5421 11.3967 43.4748 11.1882 43.3475C10.9796 43.2202 10.8103 43.0378 10.6987 42.8205C10.5871 42.6031 10.5377 42.3592 10.5558 42.1156C10.5739 41.8719 10.6588 41.638 10.8013 41.4395C12.296 39.3587 13.2826 36.9567 13.6821 34.426C13.7029 34.2489 13.7592 34.0778 13.8475 33.923C13.9359 33.7681 14.0545 33.6326 14.1963 33.5246C14.3381 33.4165 14.5002 33.3381 14.673 33.2941C14.8458 33.2501 15.0256 33.2412 15.2019 33.2682C15.3781 33.2951 15.5471 33.3573 15.6988 33.451C15.8505 33.5446 15.9818 33.6679 16.0849 33.8133C16.1879 33.9588 16.2606 34.1236 16.2987 34.2978C16.3367 34.4719 16.3392 34.652 16.3062 34.8272C15.8412 37.7685 14.6953 40.5604 12.9599 42.9803C12.8373 43.1527 12.6755 43.2935 12.4879 43.3911C12.3003 43.4888 12.0921 43.5405 11.8806 43.542Z" fill="white"/>
<path d="M14.3642 47.5421C14.0497 47.544 13.745 47.433 13.5055 47.2291C13.2375 47.0005 13.0709 46.6749 13.0424 46.3237C13.0138 45.9726 13.1255 45.6244 13.3531 45.3554C14.0886 44.4904 14.7528 43.5672 15.3392 42.5949C15.5264 42.3055 15.8188 42.1003 16.1546 42.0225C16.4904 41.9448 16.8433 42.0006 17.1386 42.1783C17.434 42.3559 17.6487 42.6414 17.7375 42.9745C17.8262 43.3075 17.782 43.662 17.6142 43.9631C16.9532 45.0597 16.2044 46.1009 15.3753 47.0767C15.251 47.2234 15.096 47.3411 14.9213 47.4215C14.7467 47.5019 14.5565 47.5431 14.3642 47.5421ZM18.4327 40.4122C18.2851 40.414 18.1384 40.3895 17.9993 40.3399C17.6702 40.2219 17.401 39.9785 17.2507 39.6628C17.1003 39.3471 17.081 38.9847 17.1969 38.6547C17.9465 36.474 18.3289 34.1839 18.3284 31.8779C18.3284 31.7035 18.3627 31.5308 18.4295 31.3697C18.4962 31.2085 18.594 31.0621 18.7173 30.9388C18.8407 30.8155 18.9871 30.7176 19.1482 30.6509C19.3093 30.5842 19.482 30.5498 19.6564 30.5498C19.8309 30.5498 20.0036 30.5842 20.1647 30.6509C20.3258 30.7176 20.4722 30.8155 20.5955 30.9388C20.7189 31.0621 20.8167 31.2085 20.8834 31.3697C20.9502 31.5308 20.9845 31.7035 20.9845 31.8779C20.9845 34.4725 20.5519 37.049 19.7046 39.5013C19.6168 39.7686 19.4462 40.0009 19.2175 40.1647C18.9888 40.3284 18.7139 40.4151 18.4327 40.4122Z" fill="white"/>
<path d="M17.4136 50.7841C17.1573 50.7856 16.906 50.7128 16.6903 50.5744C16.4746 50.436 16.3037 50.2379 16.1983 50.0043C16.093 49.7706 16.0577 49.5114 16.0968 49.2581C16.1359 49.0048 16.2476 48.7683 16.4185 48.5773C20.4903 43.9676 22.7364 38.0284 22.7339 31.8779C22.7339 31.5257 22.8738 31.1879 23.1229 30.9388C23.372 30.6897 23.7098 30.5498 24.062 30.5498C24.4142 30.5498 24.752 30.6897 25.0011 30.9388C25.2502 31.1879 25.3901 31.5257 25.3901 31.8779C25.3929 38.6759 22.9098 45.2403 18.4086 50.3347C18.2846 50.4764 18.1315 50.5899 17.9599 50.6674C17.7882 50.745 17.6019 50.7847 17.4136 50.7841Z" fill="white"/>
<path d="M21.0085 53.3922C20.6916 53.3933 20.385 53.2792 20.1459 53.0712C20.0134 52.9581 19.9045 52.8199 19.8255 52.6647C19.7466 52.5094 19.699 52.34 19.6856 52.1663C19.6722 51.9926 19.6931 51.818 19.7473 51.6524C19.8015 51.4869 19.8879 51.3336 20.0014 51.2015C20.7958 50.2765 21.5328 49.3037 22.2082 48.2885C22.4113 48.0169 22.7106 47.8333 23.0447 47.7752C23.3789 47.7172 23.7226 47.7893 24.0053 47.9766C24.2881 48.1639 24.4884 48.4522 24.5654 48.7826C24.6423 49.1129 24.5899 49.4601 24.419 49.753C23.6813 50.8573 22.8774 51.9158 22.0116 52.9228C21.8877 53.0682 21.734 53.1854 21.561 53.2663C21.3879 53.3473 21.1996 53.3903 21.0085 53.3922ZM25.0209 47.4499C24.793 47.4499 24.5689 47.3913 24.3703 47.2796C24.1716 47.168 24.005 47.0071 23.8865 46.8124C23.7681 46.6177 23.7017 46.3959 23.6937 46.1681C23.6858 45.9404 23.7366 45.7144 23.8412 45.512C25.2422 42.8118 26.218 39.9115 26.7341 36.9135C26.8048 36.5771 27.0031 36.2812 27.2874 36.088C27.5718 35.8948 27.9199 35.8194 28.2587 35.8776C28.5975 35.9358 28.9005 36.1231 29.1041 36.4001C29.3076 36.6771 29.3958 37.0222 29.3502 37.3629C28.7895 40.6359 27.7271 43.8028 26.2005 46.7518C26.0863 46.9647 25.916 47.1423 25.708 47.2654C25.5001 47.3885 25.2625 47.4523 25.0209 47.4499Z" fill="white"/>
<path d="M25.1534 55.3263C24.8529 55.3274 24.5612 55.2255 24.3268 55.0374C24.0519 54.8175 23.8755 54.4975 23.8364 54.1477C23.7972 53.7978 23.8986 53.4468 24.1182 53.1716C28.9458 47.1234 31.5796 39.6168 31.5892 31.8781C31.5793 31.6978 31.6062 31.5174 31.6684 31.3479C31.7305 31.1784 31.8266 31.0233 31.9507 30.8922C32.0748 30.7611 32.2244 30.6566 32.3902 30.5852C32.5561 30.5139 32.7347 30.4771 32.9153 30.4771C33.0958 30.4771 33.2745 30.5139 33.4403 30.5852C33.6062 30.6566 33.7557 30.7611 33.8798 30.8922C34.0039 31.0233 34.1 31.1784 34.1622 31.3479C34.2243 31.5174 34.2513 31.6978 34.2413 31.8781C34.2445 36.0199 33.5445 40.1321 32.171 44.0395C30.802 47.9478 28.7806 51.5959 26.1926 54.8287C26.0684 54.985 25.9104 55.1111 25.7303 55.1973C25.5503 55.2835 25.353 55.3276 25.1534 55.3263Z" fill="white"/>
<path d="M29.8518 56.4575C29.6073 56.4583 29.3673 56.3913 29.1585 56.264C28.9496 56.1367 28.7802 55.9541 28.6688 55.7364C28.5574 55.5186 28.5086 55.2743 28.5276 55.0305C28.5466 54.7867 28.6328 54.5529 28.7765 54.3551C29.7836 52.9507 31.7417 49.8211 32.516 48.3726C32.682 48.0619 32.9647 47.8299 33.3018 47.7275C33.6389 47.6252 34.0028 47.661 34.3136 47.827C34.6243 47.993 34.8564 48.2756 34.9587 48.6127C35.061 48.9498 35.0253 49.3138 34.8592 49.6245C34.0287 51.1773 32.0105 54.4032 30.9312 55.9038C30.8082 56.0752 30.6461 56.2148 30.4584 56.3111C30.2707 56.4074 30.0628 56.4576 29.8518 56.4575ZM35.5012 45.1748C35.3649 45.1755 35.2293 45.1538 35.1 45.1106C34.9334 45.0585 34.7788 44.9741 34.6449 44.8622C34.511 44.7503 34.4004 44.6131 34.3196 44.4585C34.2387 44.3038 34.1891 44.1348 34.1736 43.961C34.1581 43.7871 34.1771 43.612 34.2293 43.4455C35.4116 39.7035 36.0124 35.8022 36.0108 31.8779C36.0108 31.5257 36.1507 31.1879 36.3998 30.9388C36.6488 30.6897 36.9866 30.5498 37.3389 30.5498C37.6911 30.5498 38.0289 30.6897 38.278 30.9388C38.527 31.1879 38.667 31.5257 38.667 31.8779C38.6669 36.0727 38.0255 40.2429 36.7651 44.2439C36.6801 44.5129 36.512 44.748 36.2848 44.9153C36.0577 45.0826 35.7833 45.1735 35.5012 45.1748Z" fill="white"/>
<path d="M35.092 56.5738C34.845 56.574 34.603 56.5045 34.3938 56.3732C34.1014 56.1873 33.8932 55.8943 33.8137 55.557C33.7342 55.2197 33.7898 54.8646 33.9685 54.5677C37.7039 48.5481 39.8966 41.7 40.3522 34.6303C40.375 34.2786 40.5367 33.9504 40.8015 33.7179C41.0664 33.4854 41.4128 33.3676 41.7645 33.3905C42.1162 33.4134 42.4444 33.575 42.6769 33.8399C42.9094 34.1048 43.0272 34.4511 43.0043 34.8028C42.7634 38.5386 42.0654 42.2308 40.9259 45.7967C39.7815 49.3684 38.2022 52.7858 36.2234 55.972C36.1009 56.1596 35.9329 56.3132 35.7351 56.4184C35.5373 56.5236 35.316 56.5771 35.092 56.5738Z" fill="white"/>
<path d="M40.9018 55.2782C40.6925 55.2791 40.4861 55.2295 40.3 55.1338C39.9902 54.9742 39.7558 54.6989 39.6477 54.3677C39.5395 54.0365 39.5663 53.6759 39.7222 53.3643C41.9194 49.0468 43.4404 44.4174 44.2321 39.6381C44.2608 39.466 44.3231 39.3014 44.4155 39.1534C44.5078 39.0055 44.6284 38.8771 44.7704 38.7758C44.9123 38.6745 45.0729 38.6021 45.2428 38.5628C45.4127 38.5235 45.5887 38.518 45.7608 38.5467C45.9328 38.5754 46.0975 38.6378 46.2454 38.7301C46.3934 38.8225 46.5217 38.9431 46.623 39.0851C46.7244 39.227 46.7968 39.3875 46.8361 39.5575C46.8754 39.7274 46.8808 39.9034 46.8521 40.0754C46.0152 45.122 44.4076 50.0099 42.0855 54.568C41.9729 54.7841 41.8028 54.9648 41.5939 55.0902C41.385 55.2155 41.1454 55.2806 40.9018 55.2782ZM46.154 35.2165H46.0978C45.9235 35.2098 45.7523 35.1687 45.5939 35.0956C45.4356 35.0225 45.2932 34.9189 45.175 34.7907C45.0568 34.6624 44.9652 34.5121 44.9052 34.3483C44.8453 34.1845 44.8184 34.0105 44.8259 33.8362C44.85 33.1822 44.866 32.5202 44.866 31.8662C44.866 31.5139 45.0059 31.1761 45.255 30.9271C45.5041 30.678 45.8419 30.5381 46.1941 30.5381C46.5463 30.5381 46.8841 30.678 47.1332 30.9271C47.3823 31.1761 47.5222 31.5139 47.5222 31.8662C47.5222 32.5563 47.5222 33.2585 47.478 33.9446C47.4676 34.2912 47.3219 34.62 47.0723 34.8606C46.8226 35.1013 46.4887 35.2348 46.1419 35.2325L46.154 35.2165Z" fill="white"/>
<path d="M47.2494 51.8273C47.0349 51.8273 46.8236 51.7753 46.6336 51.6758C46.4435 51.5763 46.2804 51.4323 46.1581 51.256C46.0359 51.0798 45.9582 50.8765 45.9316 50.6637C45.905 50.4508 45.9304 50.2347 46.0056 50.0338C48.1817 44.2281 49.2949 38.078 49.2917 31.8779C49.2917 31.5257 49.4316 31.1879 49.6807 30.9388C49.9298 30.6897 50.2676 30.5498 50.6198 30.5498C50.972 30.5498 51.3098 30.6897 51.5589 30.9388C51.808 31.1879 51.9479 31.5257 51.9479 31.8779C51.9501 38.3932 50.7799 44.8557 48.4933 50.9566C48.3998 51.2114 48.2304 51.4315 48.008 51.5872C47.7857 51.7429 47.5209 51.8267 47.2494 51.8273Z" fill="white"/>
<path d="M54.1666 43.1846C54.0905 43.1906 54.014 43.1906 53.9379 43.1846C53.5907 43.123 53.2821 42.9262 53.0798 42.6374C52.8775 42.3485 52.7979 41.9913 52.8586 41.6439C53.2725 39.3359 53.5405 37.0041 53.6611 34.6624C53.7052 33.7476 53.7293 32.8167 53.7293 31.8979C53.7293 31.5457 53.8692 31.2079 54.1183 30.9588C54.3673 30.7097 54.7051 30.5698 55.0574 30.5698C55.4096 30.5698 55.7474 30.7097 55.9965 30.9588C56.2455 31.2079 56.3855 31.5457 56.3855 31.8979C56.3855 32.8609 56.3614 33.8359 56.3132 34.7948C56.1966 37.2459 55.9286 39.6873 55.5108 42.1053C55.4517 42.4157 55.284 42.6949 55.0376 42.8927C54.7913 43.0905 54.4824 43.194 54.1666 43.1846Z" fill="white"/>
</svg>
