<svg width="35" height="35" viewBox="0 0 35 35" fill="none" xmlns="http://www.w3.org/2000/svg">
<path d="M32.7205 10.1905C32.6044 8.68122 31.9121 7.22175 30.7713 6.08083C28.3877 3.69728 24.7554 3.45132 22.6743 5.53238L8.68821 19.5186C8.04632 20.1605 7.69283 21.0139 7.69283 21.9216C7.69283 22.8294 8.04632 23.6828 8.68821 24.3247C9.33011 24.9665 10.1835 25.3201 11.0912 25.3201C11.999 25.3201 12.8525 24.9665 13.4943 24.3247L27.4805 10.3385C27.7474 10.0715 27.7474 9.63866 27.4805 9.37165C27.2135 9.10471 26.7808 9.10471 26.5137 9.37165L12.5275 23.358C12.1439 23.7415 11.6338 23.9529 11.0912 23.9529C10.5487 23.9529 10.0387 23.7415 9.65495 23.358C9.27132 22.9743 9.06002 22.4643 9.06002 21.9216C9.06002 21.379 9.27132 20.869 9.65495 20.4854L23.6411 6.49912C25.1891 4.95106 27.954 5.19715 29.8046 7.04757C30.7148 7.95784 31.2663 9.1112 31.3573 10.2954C31.4454 11.4399 31.0887 12.4754 30.3531 13.2111L25.4168 18.1474L16.3669 27.1973C14.9577 28.6064 13.0841 29.3826 11.0912 29.3826C9.09837 29.3826 7.22478 28.6064 5.81562 27.1973C4.40646 25.7882 3.63037 23.9146 3.63037 21.9216C3.63037 19.9288 4.40646 18.0551 5.81562 16.646L16.7852 5.67642C17.0521 5.40947 17.0521 4.97662 16.7852 4.70961C16.5182 4.44267 16.0853 4.44267 15.8184 4.70961L4.84881 15.6792C3.18146 17.3466 2.26318 19.5636 2.26318 21.9215C2.26318 24.2797 3.18146 26.4966 4.84888 28.164C6.5163 29.8313 8.73319 30.7496 11.0912 30.7496C13.4493 30.7496 15.6662 29.8313 17.3336 28.164L26.3835 19.1141L31.3198 14.1777C32.3422 13.1555 32.8397 11.7394 32.7205 10.1905Z" fill="#3E3E3F" fill-opacity="0.6"/>
</svg>
